  0
SECTION
  2
HEADER
  9
$ACADVER
  1
AC1002
  9
$INSBASE
 10
0.0
 20
0.0
  9
$EXTMIN
 10
-45.0381
 20
89.4619
  9
$EXTMAX
 10
35.0381
 20
113.5381
  9
$LIMMIN
 10
0.0
 20
0.0
  9
$LIMMAX
 10
0.0
 20
0.0
  9
$VIEWCTR
 10
6.591288
 20
4.579184
  9
$VIEWSIZE
 40
9.158369
  9
$SNAPMODE
 70
     0
  9
$SNAPUNIT
 10
1.0
 20
1.0
  9
$SNAPBASE
 10
0.0
 20
0.0
  9
$SNAPANG
 50
0.0
  9
$SNAPSTYLE
 70
     0
  9
$SNAPISOPAIR
 70
     0
  9
$GRIDMODE
 70
     0
  9
$GRIDUNIT
 10
0.0
 20
0.0
  9
$ORTHOMODE
 70
     0
  9
$REGENMODE
 70
     1
  9
$FILLMODE
 70
     1
  9
$QTEXTMODE
 70
     0
  9
$DRAGMODE
 70
     2
  9
$LTSCALE
 40
1.0
  9
$OSMODE
 70
     0
  9
$ATTMODE
 70
     1
  9
$TEXTSIZE
 40
0.2
  9
$TRACEWID
 40
0.05
  9
$TEXTSTYLE
  7
STANDARD
  9
$CLAYER
  8
0
  9
$CELTYPE
  6
CONTINUOUS
  9
$CECOLOR
 62
   256
  9
$DIMSCALE
 40
1.0
  9
$DIMASZ
 40
0.18
  9
$DIMEXO
 40
0.0625
  9
$DIMDLI
 40
0.38
  9
$DIMRND
 40
0.0
  9
$DIMDLE
 40
0.0
  9
$DIMEXE
 40
0.18
  9
$DIMTP
 40
0.0
  9
$DIMTM
 40
0.0
  9
$DIMTXT
 40
0.18
  9
$DIMCEN
 40
0.09
  9
$DIMTSZ
 40
0.0
  9
$DIMTOL
 70
     0
  9
$DIMLIM
 70
     0
  9
$DIMTIH
 70
     1
  9
$DIMTOH
 70
     1
  9
$DIMSE1
 70
     0
  9
$DIMSE2
 70
     0
  9
$DIMTAD
 70
     0
  9
$DIMZIN
 70
     0
  9
$DIMBLK
  1

  9
$LUNITS
 70
     2
  9
$LUPREC
 70
     4
  9
$AXISMODE
 70
     0
  9
$AXISUNIT
 10
0.0
 20
0.0
  9
$SKETCHINC
 40
0.1
  9
$FILLETRAD
 40
0.0
  9
$AUNITS
 70
     0
  9
$AUPREC
 70
     0
  9
$MENU
  1
acad
  9
$ELEVATION
 40
0.0
  9
$THICKNESS
 40
0.0
  9
$VIEWDIR
 10
0.0
 20
0.0
 30
1.0
  9
$LIMCHECK
 70
     0
  9
$BLIPMODE
 70
     1
  9
$CHAMFERA
 40
0.0
  9
$CHAMFERB
 40
0.0
  9
$FASTZOOM
 70
     1
  9
$SKPOLY
 70
     0
  9
$TDCREATE
 40
0.000000000
  9
$TDUPDATE
 40
0.000000000
  9
$TDINDWG
 40
0.0000000000
  9
$TDUSRTIMER
 40
0.0000000000
  9
$USRTIMER
 70
     1
  9
$ANGBASE
 50
0.0
  9
$ANGDIR
 70
     0
  9
$PDMODE
 70
     0
  9
$PDSIZE
 40
0.0
  9
$PLINEWID
 40
0.0
  9
$COORDS
 70
     0
  9
$USERI1
 70
     0
  9
$USERI2
 70
     0
  9
$USERI3
 70
     0
  9
$USERI4
 70
     0
  9
$USERI5
 70
     0
  9
$USERR1
 40
0.0
  9
$USERR2
 40
0.0
  9
$USERR3
 40
0.0
  9
$USERR4
 40
0.0
  9
$USERR5
 40
0.0
  0
ENDSEC
  0
SECTION
  2
TABLES
  0
TABLE
  2
LTYPE
 70
     1
  0
LTYPE
  2
CONTINUOUS
 70
    64
  3
Solid line
 72
    65
 73
     0
 40
0.0
  0
ENDTAB
  0
TABLE
  2
LAYER
 70
     2
  0
LAYER
  2
0
 70
     0
 62
     7
  6
CONTINUOUS
  0
LAYER
  2
EBENE_1
 70
     0
 62
     7
  6
CONTINUOUS
  0
ENDTAB
  0
TABLE
  2
STYLE
 70
     1
  0
STYLE
  2
STANDARD
 70
     0
 40
0.0
 41
1.0
 50
0.0
 71
     0
 42
0.0
  3
txt
  4

  0
ENDTAB
  0
TABLE
  2
VIEW
 70
     0
  0
ENDTAB
  0
ENDSEC
  0
SECTION
  2
BLOCKS
  0
ENDSEC
  0
SECTION
  2
ENTITIES
  0
POLYLINE
  8
EBENE_1
 39
5.0
 66
     1
 70
     1
  0
VERTEX
  8
EBENE_1
 39
5.0
 10
-45.0
 20
90.5
  0
VERTEX
  8
EBENE_1
 39
5.0
 10
35.0
 20
90.5
  0
VERTEX
  8
EBENE_1
 39
5.0
 10
35.0
 20
112.5
  0
VERTEX
  8
EBENE_1
 39
5.0
 10
-45.0
 20
112.5
  0
VERTEX
  8
EBENE_1
 39
5.0
 10
-45.0
 20
90.5
  0
SEQEND
  8
EBENE_1
 39
5.0
  0
POLYLINE
  8
0
 62
     7
 39
5.0
 66
     1
  0
VERTEX
  8
0
 10
-35.0
 20
103.0
  0
VERTEX
  8
0
 10
-35.0
 20
103.0
  0
VERTEX
  8
0
 10
-34.8465
 20
102.9922
  0
VERTEX
  8
0
 10
-34.6976
 20
102.9695
  0
VERTEX
  8
0
 10
-34.5538
 20
102.9324
  0
VERTEX
  8
0
 10
-34.4161
 20
102.882
  0
VERTEX
  8
0
 10
-34.2848
 20
102.8187
  0
VERTEX
  8
0
 10
-34.1612
 20
102.7436
  0
VERTEX
  8
0
 10
-34.0457
 20
102.6572
  0
VERTEX
  8
0
 10
-33.9393
 20
102.5605
  0
VERTEX
  8
0
 10
-33.8424
 20
102.4539
  0
VERTEX
  8
0
 10
-33.756
 20
102.3385
  0
VERTEX
  8
0
 10
-33.6808
 20
102.2147
  0
VERTEX
  8
0
 10
-33.6178
 20
102.0837
  0
VERTEX
  8
0
 10
-33.5672
 20
101.9458
  0
VERTEX
  8
0
 10
-33.5303
 20
101.8021
  0
VERTEX
  8
0
 10
-33.5076
 20
101.6532
  0
VERTEX
  8
0
 10
-33.5
 20
101.5
  0
VERTEX
  8
0
 10
-33.5
 20
101.5
  0
VERTEX
  8
0
 10
-33.5076
 20
101.3465
  0
VERTEX
  8
0
 10
-33.5303
 20
101.1976
  0
VERTEX
  8
0
 10
-33.5672
 20
101.0538
  0
VERTEX
  8
0
 10
-33.6178
 20
100.9161
  0
VERTEX
  8
0
 10
-33.6808
 20
100.7848
  0
VERTEX
  8
0
 10
-33.756
 20
100.6612
  0
VERTEX
  8
0
 10
-33.8424
 20
100.5457
  0
VERTEX
  8
0
 10
-33.9393
 20
100.4393
  0
VERTEX
  8
0
 10
-34.0457
 20
100.3424
  0
VERTEX
  8
0
 10
-34.1612
 20
100.256
  0
VERTEX
  8
0
 10
-34.2848
 20
100.1808
  0
VERTEX
  8
0
 10
-34.4161
 20
100.1178
  0
VERTEX
  8
0
 10
-34.5538
 20
100.0672
  0
VERTEX
  8
0
 10
-34.6976
 20
100.0303
  0
VERTEX
  8
0
 10
-34.8465
 20
100.0076
  0
VERTEX
  8
0
 10
-35.0
 20
100.0
  0
VERTEX
  8
0
 10
-35.0
 20
100.0
  0
VERTEX
  8
0
 10
-35.1532
 20
100.0076
  0
VERTEX
  8
0
 10
-35.3021
 20
100.0303
  0
VERTEX
  8
0
 10
-35.4458
 20
100.0672
  0
VERTEX
  8
0
 10
-35.5837
 20
100.1178
  0
VERTEX
  8
0
 10
-35.7147
 20
100.1808
  0
VERTEX
  8
0
 10
-35.8385
 20
100.256
  0
VERTEX
  8
0
 10
-35.9539
 20
100.3424
  0
VERTEX
  8
0
 10
-36.0605
 20
100.4393
  0
VERTEX
  8
0
 10
-36.1572
 20
100.5457
  0
VERTEX
  8
0
 10
-36.2436
 20
100.6612
  0
VERTEX
  8
0
 10
-36.3187
 20
100.7848
  0
VERTEX
  8
0
 10
-36.382
 20
100.9161
  0
VERTEX
  8
0
 10
-36.4324
 20
101.0538
  0
VERTEX
  8
0
 10
-36.4695
 20
101.1976
  0
VERTEX
  8
0
 10
-36.4922
 20
101.3465
  0
VERTEX
  8
0
 10
-36.5
 20
101.5
  0
VERTEX
  8
0
 10
-36.5
 20
101.5
  0
VERTEX
  8
0
 10
-36.4922
 20
101.6532
  0
VERTEX
  8
0
 10
-36.4695
 20
101.8021
  0
VERTEX
  8
0
 10
-36.4324
 20
101.9458
  0
VERTEX
  8
0
 10
-36.382
 20
102.0837
  0
VERTEX
  8
0
 10
-36.3187
 20
102.2147
  0
VERTEX
  8
0
 10
-36.2436
 20
102.3385
  0
VERTEX
  8
0
 10
-36.1572
 20
102.4539
  0
VERTEX
  8
0
 10
-36.0605
 20
102.5605
  0
VERTEX
  8
0
 10
-35.9539
 20
102.6572
  0
VERTEX
  8
0
 10
-35.8385
 20
102.7436
  0
VERTEX
  8
0
 10
-35.7147
 20
102.8187
  0
VERTEX
  8
0
 10
-35.5837
 20
102.882
  0
VERTEX
  8
0
 10
-35.4458
 20
102.9324
  0
VERTEX
  8
0
 10
-35.3021
 20
102.9695
  0
VERTEX
  8
0
 10
-35.1532
 20
102.9922
  0
VERTEX
  8
0
 10
-35.0
 20
103.0
  0
SEQEND
  8
0
  0
POLYLINE
  8
0
 62
     7
 39
5.0
 66
     1
  0
VERTEX
  8
0
 10
-14.5
 20
103.0
  0
VERTEX
  8
0
 10
-14.5
 20
103.0
  0
VERTEX
  8
0
 10
-14.3465
 20
102.9922
  0
VERTEX
  8
0
 10
-14.1976
 20
102.9695
  0
VERTEX
  8
0
 10
-14.0538
 20
102.9324
  0
VERTEX
  8
0
 10
-13.9161
 20
102.882
  0
VERTEX
  8
0
 10
-13.7849
 20
102.8187
  0
VERTEX
  8
0
 10
-13.6613
 20
102.7436
  0
VERTEX
  8
0
 10
-13.5458
 20
102.6572
  0
VERTEX
  8
0
 10
-13.4394
 20
102.5605
  0
VERTEX
  8
0
 10
-13.3424
 20
102.4539
  0
VERTEX
  8
0
 10
-13.256
 20
102.3385
  0
VERTEX
  8
0
 10
-13.1808
 20
102.2147
  0
VERTEX
  8
0
 10
-13.1178
 20
102.0837
  0
VERTEX
  8
0
 10
-13.0672
 20
101.9458
  0
VERTEX
  8
0
 10
-13.0303
 20
101.8021
  0
VERTEX
  8
0
 10
-13.0076
 20
101.6532
  0
VERTEX
  8
0
 10
-13.0
 20
101.5
  0
VERTEX
  8
0
 10
-13.0
 20
101.5
  0
VERTEX
  8
0
 10
-13.0076
 20
101.3465
  0
VERTEX
  8
0
 10
-13.0303
 20
101.1976
  0
VERTEX
  8
0
 10
-13.0672
 20
101.0538
  0
VERTEX
  8
0
 10
-13.1178
 20
100.9161
  0
VERTEX
  8
0
 10
-13.1808
 20
100.7849
  0
VERTEX
  8
0
 10
-13.256
 20
100.6613
  0
VERTEX
  8
0
 10
-13.3424
 20
100.5458
  0
VERTEX
  8
0
 10
-13.4394
 20
100.4394
  0
VERTEX
  8
0
 10
-13.5458
 20
100.3424
  0
VERTEX
  8
0
 10
-13.6613
 20
100.256
  0
VERTEX
  8
0
 10
-13.7849
 20
100.1808
  0
VERTEX
  8
0
 10
-13.9161
 20
100.1178
  0
VERTEX
  8
0
 10
-14.0538
 20
100.0672
  0
VERTEX
  8
0
 10
-14.1976
 20
100.0303
  0
VERTEX
  8
0
 10
-14.3465
 20
100.0076
  0
VERTEX
  8
0
 10
-14.5
 20
100.0
  0
VERTEX
  8
0
 10
-14.5
 20
100.0
  0
VERTEX
  8
0
 10
-14.6532
 20
100.0076
  0
VERTEX
  8
0
 10
-14.8021
 20
100.0303
  0
VERTEX
  8
0
 10
-14.9458
 20
100.0672
  0
VERTEX
  8
0
 10
-15.0837
 20
100.1178
  0
VERTEX
  8
0
 10
-15.2147
 20
100.1808
  0
VERTEX
  8
0
 10
-15.3385
 20
100.256
  0
VERTEX
  8
0
 10
-15.4539
 20
100.3424
  0
VERTEX
  8
0
 10
-15.5605
 20
100.4394
  0
VERTEX
  8
0
 10
-15.6572
 20
100.5458
  0
VERTEX
  8
0
 10
-15.7436
 20
100.6613
  0
VERTEX
  8
0
 10
-15.8187
 20
100.7849
  0
VERTEX
  8
0
 10
-15.882
 20
100.9161
  0
VERTEX
  8
0
 10
-15.9324
 20
101.0538
  0
VERTEX
  8
0
 10
-15.9695
 20
101.1976
  0
VERTEX
  8
0
 10
-15.9922
 20
101.3465
  0
VERTEX
  8
0
 10
-16.0
 20
101.5
  0
VERTEX
  8
0
 10
-16.0
 20
101.5
  0
VERTEX
  8
0
 10
-15.9922
 20
101.6532
  0
VERTEX
  8
0
 10
-15.9695
 20
101.8021
  0
VERTEX
  8
0
 10
-15.9324
 20
101.9458
  0
VERTEX
  8
0
 10
-15.882
 20
102.0837
  0
VERTEX
  8
0
 10
-15.8187
 20
102.2147
  0
VERTEX
  8
0
 10
-15.7436
 20
102.3385
  0
VERTEX
  8
0
 10
-15.6572
 20
102.4539
  0
VERTEX
  8
0
 10
-15.5605
 20
102.5605
  0
VERTEX
  8
0
 10
-15.4539
 20
102.6572
  0
VERTEX
  8
0
 10
-15.3385
 20
102.7436
  0
VERTEX
  8
0
 10
-15.2147
 20
102.8187
  0
VERTEX
  8
0
 10
-15.0837
 20
102.882
  0
VERTEX
  8
0
 10
-14.9458
 20
102.9324
  0
VERTEX
  8
0
 10
-14.8021
 20
102.9695
  0
VERTEX
  8
0
 10
-14.6532
 20
102.9922
  0
VERTEX
  8
0
 10
-14.5
 20
103.0
  0
SEQEND
  8
0
  0
POLYLINE
  8
0
 62
     7
 39
5.0
 66
     1
  0
VERTEX
  8
0
 10
4.5
 20
103.0
  0
VERTEX
  8
0
 10
4.5
 20
103.0
  0
VERTEX
  8
0
 10
4.6532
 20
102.9922
  0
VERTEX
  8
0
 10
4.8021
 20
102.9695
  0
VERTEX
  8
0
 10
4.9458
 20
102.9324
  0
VERTEX
  8
0
 10
5.0837
 20
102.882
  0
VERTEX
  8
0
 10
5.2147
 20
102.8187
  0
VERTEX
  8
0
 10
5.3385
 20
102.7436
  0
VERTEX
  8
0
 10
5.4539
 20
102.6572
  0
VERTEX
  8
0
 10
5.5605
 20
102.5605
  0
VERTEX
  8
0
 10
5.6572
 20
102.4539
  0
VERTEX
  8
0
 10
5.7436
 20
102.3385
  0
VERTEX
  8
0
 10
5.8187
 20
102.2147
  0
VERTEX
  8
0
 10
5.882
 20
102.0837
  0
VERTEX
  8
0
 10
5.9324
 20
101.9458
  0
VERTEX
  8
0
 10
5.9695
 20
101.8021
  0
VERTEX
  8
0
 10
5.9922
 20
101.6532
  0
VERTEX
  8
0
 10
6.0
 20
101.5
  0
VERTEX
  8
0
 10
6.0
 20
101.5
  0
VERTEX
  8
0
 10
5.9922
 20
101.3465
  0
VERTEX
  8
0
 10
5.9695
 20
101.1976
  0
VERTEX
  8
0
 10
5.9324
 20
101.0538
  0
VERTEX
  8
0
 10
5.882
 20
100.9161
  0
VERTEX
  8
0
 10
5.8187
 20
100.7849
  0
VERTEX
  8
0
 10
5.7436
 20
100.6613
  0
VERTEX
  8
0
 10
5.6572
 20
100.5458
  0
VERTEX
  8
0
 10
5.5605
 20
100.4394
  0
VERTEX
  8
0
 10
5.4539
 20
100.3424
  0
VERTEX
  8
0
 10
5.3385
 20
100.256
  0
VERTEX
  8
0
 10
5.2147
 20
100.1808
  0
VERTEX
  8
0
 10
5.0837
 20
100.1178
  0
VERTEX
  8
0
 10
4.9458
 20
100.0672
  0
VERTEX
  8
0
 10
4.8021
 20
100.0303
  0
VERTEX
  8
0
 10
4.6532
 20
100.0076
  0
VERTEX
  8
0
 10
4.5
 20
100.0
  0
VERTEX
  8
0
 10
4.5
 20
100.0
  0
VERTEX
  8
0
 10
4.3465
 20
100.0076
  0
VERTEX
  8
0
 10
4.1976
 20
100.0303
  0
VERTEX
  8
0
 10
4.0538
 20
100.0672
  0
VERTEX
  8
0
 10
3.9161
 20
100.1178
  0
VERTEX
  8
0
 10
3.7849
 20
100.1808
  0
VERTEX
  8
0
 10
3.6613
 20
100.256
  0
VERTEX
  8
0
 10
3.5458
 20
100.3424
  0
VERTEX
  8
0
 10
3.4394
 20
100.4394
  0
VERTEX
  8
0
 10
3.3424
 20
100.5458
  0
VERTEX
  8
0
 10
3.256
 20
100.6613
  0
VERTEX
  8
0
 10
3.1808
 20
100.7849
  0
VERTEX
  8
0
 10
3.1178
 20
100.9161
  0
VERTEX
  8
0
 10
3.0672
 20
101.0538
  0
VERTEX
  8
0
 10
3.0303
 20
101.1976
  0
VERTEX
  8
0
 10
3.0076
 20
101.3465
  0
VERTEX
  8
0
 10
3.0
 20
101.5
  0
VERTEX
  8
0
 10
3.0
 20
101.5
  0
VERTEX
  8
0
 10
3.0076
 20
101.6532
  0
VERTEX
  8
0
 10
3.0303
 20
101.8021
  0
VERTEX
  8
0
 10
3.0672
 20
101.9458
  0
VERTEX
  8
0
 10
3.1178
 20
102.0837
  0
VERTEX
  8
0
 10
3.1808
 20
102.2147
  0
VERTEX
  8
0
 10
3.256
 20
102.3385
  0
VERTEX
  8
0
 10
3.3424
 20
102.4539
  0
VERTEX
  8
0
 10
3.4394
 20
102.5605
  0
VERTEX
  8
0
 10
3.5458
 20
102.6572
  0
VERTEX
  8
0
 10
3.6613
 20
102.7436
  0
VERTEX
  8
0
 10
3.7849
 20
102.8187
  0
VERTEX
  8
0
 10
3.9161
 20
102.882
  0
VERTEX
  8
0
 10
4.0538
 20
102.9324
  0
VERTEX
  8
0
 10
4.1976
 20
102.9695
  0
VERTEX
  8
0
 10
4.3465
 20
102.9922
  0
VERTEX
  8
0
 10
4.5
 20
103.0
  0
SEQEND
  8
0
  0
POLYLINE
  8
0
 62
     7
 39
5.0
 66
     1
  0
VERTEX
  8
0
 10
25.0
 20
103.0
  0
VERTEX
  8
0
 10
25.0
 20
103.0
  0
VERTEX
  8
0
 10
25.1532
 20
102.9922
  0
VERTEX
  8
0
 10
25.3021
 20
102.9695
  0
VERTEX
  8
0
 10
25.4458
 20
102.9324
  0
VERTEX
  8
0
 10
25.5837
 20
102.882
  0
VERTEX
  8
0
 10
25.7147
 20
102.8187
  0
VERTEX
  8
0
 10
25.8385
 20
102.7436
  0
VERTEX
  8
0
 10
25.9539
 20
102.6572
  0
VERTEX
  8
0
 10
26.0605
 20
102.5605
  0
VERTEX
  8
0
 10
26.1572
 20
102.4539
  0
VERTEX
  8
0
 10
26.2436
 20
102.3385
  0
VERTEX
  8
0
 10
26.3187
 20
102.2147
  0
VERTEX
  8
0
 10
26.382
 20
102.0837
  0
VERTEX
  8
0
 10
26.4324
 20
101.9458
  0
VERTEX
  8
0
 10
26.4695
 20
101.8021
  0
VERTEX
  8
0
 10
26.4922
 20
101.6532
  0
VERTEX
  8
0
 10
26.5
 20
101.5
  0
VERTEX
  8
0
 10
26.5
 20
101.5
  0
VERTEX
  8
0
 10
26.4922
 20
101.3465
  0
VERTEX
  8
0
 10
26.4695
 20
101.1976
  0
VERTEX
  8
0
 10
26.4324
 20
101.0538
  0
VERTEX
  8
0
 10
26.382
 20
100.9161
  0
VERTEX
  8
0
 10
26.3187
 20
100.7848
  0
VERTEX
  8
0
 10
26.2436
 20
100.6612
  0
VERTEX
  8
0
 10
26.1572
 20
100.5457
  0
VERTEX
  8
0
 10
26.0605
 20
100.4393
  0
VERTEX
  8
0
 10
25.9539
 20
100.3424
  0
VERTEX
  8
0
 10
25.8385
 20
100.256
  0
VERTEX
  8
0
 10
25.7147
 20
100.1808
  0
VERTEX
  8
0
 10
25.5837
 20
100.1178
  0
VERTEX
  8
0
 10
25.4458
 20
100.0672
  0
VERTEX
  8
0
 10
25.3021
 20
100.0303
  0
VERTEX
  8
0
 10
25.1532
 20
100.0076
  0
VERTEX
  8
0
 10
25.0
 20
100.0
  0
VERTEX
  8
0
 10
25.0
 20
100.0
  0
VERTEX
  8
0
 10
24.8465
 20
100.0076
  0
VERTEX
  8
0
 10
24.6976
 20
100.0303
  0
VERTEX
  8
0
 10
24.5538
 20
100.0672
  0
VERTEX
  8
0
 10
24.4161
 20
100.1178
  0
VERTEX
  8
0
 10
24.2848
 20
100.1808
  0
VERTEX
  8
0
 10
24.1612
 20
100.256
  0
VERTEX
  8
0
 10
24.0457
 20
100.3424
  0
VERTEX
  8
0
 10
23.9393
 20
100.4393
  0
VERTEX
  8
0
 10
23.8424
 20
100.5457
  0
VERTEX
  8
0
 10
23.756
 20
100.6612
  0
VERTEX
  8
0
 10
23.6808
 20
100.7848
  0
VERTEX
  8
0
 10
23.6178
 20
100.9161
  0
VERTEX
  8
0
 10
23.5672
 20
101.0538
  0
VERTEX
  8
0
 10
23.5303
 20
101.1976
  0
VERTEX
  8
0
 10
23.5076
 20
101.3465
  0
VERTEX
  8
0
 10
23.5
 20
101.5
  0
VERTEX
  8
0
 10
23.5
 20
101.5
  0
VERTEX
  8
0
 10
23.5076
 20
101.6532
  0
VERTEX
  8
0
 10
23.5303
 20
101.8021
  0
VERTEX
  8
0
 10
23.5672
 20
101.9458
  0
VERTEX
  8
0
 10
23.6178
 20
102.0837
  0
VERTEX
  8
0
 10
23.6808
 20
102.2147
  0
VERTEX
  8
0
 10
23.756
 20
102.3385
  0
VERTEX
  8
0
 10
23.8424
 20
102.4539
  0
VERTEX
  8
0
 10
23.9393
 20
102.5605
  0
VERTEX
  8
0
 10
24.0457
 20
102.6572
  0
VERTEX
  8
0
 10
24.1612
 20
102.7436
  0
VERTEX
  8
0
 10
24.2848
 20
102.8187
  0
VERTEX
  8
0
 10
24.4161
 20
102.882
  0
VERTEX
  8
0
 10
24.5538
 20
102.9324
  0
VERTEX
  8
0
 10
24.6976
 20
102.9695
  0
VERTEX
  8
0
 10
24.8465
 20
102.9922
  0
VERTEX
  8
0
 10
25.0
 20
103.0
  0
SEQEND
  8
0
  0
POLYLINE
  8
0
 62
     3
 39
5.0
 66
     1
  0
VERTEX
  8
0
 10
-38.0001
 20
113.5
  0
VERTEX
  8
0
 10
-12.0
 20
113.5
  0
VERTEX
  8
0
 10
-18.0
 20
107.4151
  0
VERTEX
  8
0
 10
-18.0
 20
95.4265
  0
VERTEX
  8
0
 10
-12.0
 20
89.5
  0
VERTEX
  8
0
 10
-38.0001
 20
89.5
  0
VERTEX
  8
0
 10
-32.0
 20
95.4324
  0
VERTEX
  8
0
 10
-32.0
 20
107.4967
  0
VERTEX
  8
0
 10
-38.0001
 20
113.5
  0
SEQEND
  8
0
  0
POLYLINE
  8
0
 62
     3
 39
5.0
 66
     1
  0
VERTEX
  8
0
 10
1.9999
 20
113.5
  0
VERTEX
  8
0
 10
28.0
 20
113.5
  0
VERTEX
  8
0
 10
22.0
 20
107.4151
  0
VERTEX
  8
0
 10
22.0
 20
95.4265
  0
VERTEX
  8
0
 10
28.0
 20
89.5
  0
VERTEX
  8
0
 10
1.9999
 20
89.5
  0
VERTEX
  8
0
 10
8.0
 20
95.4324
  0
VERTEX
  8
0
 10
8.0
 20
107.4967
  0
VERTEX
  8
0
 10
1.9999
 20
113.5
  0
SEQEND
  8
0
  0
ENDSEC
  0
EOF
